<?xml version="1.0" encoding="utf-8"?>
<!-- Generator: Adobe Illustrator 21.1.0, SVG Export Plug-In . SVG Version: 6.00 Build 0)  -->
<svg version="1.1" id="Apple_News_Icon" xmlns="http://www.w3.org/2000/svg" xmlns:xlink="http://www.w3.org/1999/xlink" x="0px"
	 y="0px" width="361px" height="361px" viewBox="0 0 361 361" style="enable-background:new 0 0 361 361;" xml:space="preserve">
<g>
	<g>
		<g>
			<path style="fill:#FFFFFF;" d="M162.00821,359.9675l-49.38831-0.00174c-4.30099,0-8.60021,0.00174-12.89941-0.02463
				c-3.62253-0.02109-7.24329-0.06326-10.86406-0.16171c-7.88837-0.21271-15.84349-0.67676-23.64397-2.07776
				c-7.91999-1.42206-15.29159-3.74588-22.48566-7.40741c-7.06753-3.59824-13.5357-8.29688-19.14261-13.90253
				c-5.60868-5.60742-10.3104-12.07266-13.90831-19.13907c-3.66121-7.18945-5.98305-14.55469-7.40675-22.46835
				c-1.40262-7.80118-1.86664-15.75702-2.08108-23.64435c-0.09667-3.62109-0.13885-7.24042-0.16169-10.86151
				C0,255.98058,0.0035,251.68097,0.0035,247.38312L0,198.00969l0.03252-35.98685l0.00174-49.39277
				c0-4.30138-0.00174-8.60099,0.02463-12.90058c0.02108-3.62286,0.06326-7.24395,0.16169-10.86504
				c0.21268-7.88908,0.6767-15.84492,2.07756-23.6461c1.42194-7.92071,3.74556-15.29297,7.40675-22.48769
				c3.59793-7.06817,8.29612-13.53692,13.90128-19.14434c5.60691-5.60918,12.07158-10.31133,19.13733-13.90956
				c7.1888-3.66154,14.55337-5.98359,22.46634-7.40742c7.80045-1.40275,15.7556-1.86681,23.6422-2.08127
				c3.62077-0.09668,7.23977-0.13886,10.86053-0.16171C104.01003,0,108.30925,0.0035,112.60672,0.0035L161.97568,0h36.01611
				l49.38831,0.00174c4.30099,0,8.60022-0.00174,12.89941,0.02463c3.62253,0.02108,7.24332,0.06326,10.86407,0.16171
				c7.88837,0.2127,15.84348,0.67676,23.64395,2.07774c7.92001,1.42207,15.2916,3.7459,22.48566,7.40742
				c7.06754,3.59825,13.53571,8.29688,19.14261,13.90253c5.60867,5.60742,10.31042,12.07267,13.90833,19.13905
				c3.66119,7.18945,5.98303,14.55469,7.40674,22.46837c1.40262,7.80116,1.86664,15.75703,2.08109,23.64434
				c0.09668,3.62109,0.13885,7.24043,0.16168,10.86152c0.02637,4.29785,0.02286,8.59747,0.02286,12.89532L360,161.95779v36.01936
				l-0.00174,49.39276c0,4.30138,0.00174,8.601-0.02463,12.90059c-0.02109,3.62286-0.06326,7.24396-0.16168,10.86505
				c-0.21271,7.88907-0.6767,15.84491-2.07758,23.64609c-1.42194,7.92072-3.74554,15.29297-7.40674,22.4877
				c-3.59793,7.06815-8.29614,13.5369-13.90128,19.14432c-5.60693,5.60919-12.07159,10.31134-19.13733,13.90958
				c-7.18881,3.66153-14.55338,5.98358-22.46634,7.40741c-7.80045,1.40274-15.75562,1.86682-23.64221,2.08127
				c-3.62076,0.09668-7.23978,0.13885-10.86053,0.16171c-4.29745,0.02637-8.59668,0.02286-12.89415,0.02286L198.05682,360
				L162.00821,359.9675z"/>
		</g>
	</g>
	
		<linearGradient id="SVGID_1_" gradientUnits="userSpaceOnUse" x1="180.01625" y1="78.87497" x2="180.01625" y2="285.125" gradientTransform="matrix(1 0 0 -1 0 362)">
		<stop  offset="0" style="stop-color:#FD3159"/>
		<stop  offset="1" style="stop-color:#FD5464"/>
	</linearGradient>
	<path style="fill:url(#SVGID_1_);" d="M192.35278,76.87501h62.67314l8.56825,0.0003c0.74597,0,1.49194-0.00034,2.23788,0.0042
		c0.62839,0.00386,1.25662,0.01108,1.88486,0.02807c1.36823,0.03697,2.74854,0.11762,4.10165,0.36087
		c1.37399,0.24695,2.65283,0.6502,3.90115,1.28604c1.22617,0.6246,2.34808,1.44042,3.32095,2.4138
		c0.97299,0.97339,1.78854,2.09612,2.4129,3.32311c0.6351,1.24828,1.03802,2.52702,1.28482,3.90089
		c0.24335,1.35435,0.32404,2.73573,0.36096,4.10528c0.017,0.62846,0.02429,1.257,0.02811,1.88567
		c0.00452,0.74632,0.00418,1.49265,0.00418,2.23898l0.00027,8.57243v62.66763c0,1.8018-2.4216,2.39006-3.24387,0.78691
		c-19.64047-38.29099-50.03456-68.68784-88.32208-88.33001C189.963,79.29683,190.55121,76.87501,192.35278,76.87501z
		 M168.46657,279.88089c-38.28754-19.64227-68.68166-50.03912-88.32211-88.33006c-0.82229-1.6031-3.24387-1.01489-3.24387,0.78687
		v62.66763l0.00027,8.57243c0,0.74643-0.00032,1.49268,0.0042,2.23898c0.00381,0.62869,0.01109,1.25726,0.02809,1.88568
		c0.03694,1.36954,0.11762,2.75092,0.36094,4.10529c0.24684,1.3739,0.64974,2.65265,1.28486,3.90091
		c0.62433,1.22696,1.43989,2.3497,2.41289,3.32312c0.97288,0.97336,2.09479,1.78915,3.32097,2.41382
		c1.24831,0.6358,2.52712,1.03903,3.90114,1.28604c1.3531,0.24319,2.73341,0.32385,4.10168,0.36087
		c0.62823,0.01694,1.25645,0.02417,1.88483,0.02802c0.74595,0.00455,1.49192,0.00421,2.23787,0.00421l8.56828,0.00034h62.67317
		C169.48134,283.12503,170.06955,280.70325,168.46657,279.88089z M278.21317,225.95015L134.07033,81.7943
		c-3.94606-3.94608-6.63023-4.91917-11.87525-4.91925H96.44579c-0.7461,0-1.49245,0.00008-2.23871,0.0047
		c-0.62852,0.00369-1.25701,0.01091-1.88542,0.02803c-1.36942,0.03701-2.75079,0.11758-4.10482,0.36104
		c-1.37391,0.24699-2.65249,0.64957-3.90057,1.2847c-1.22693,0.62464-2.34947,1.44012-3.32298,2.41322
		c-0.9733,0.97318-1.789,2.09515-2.41341,3.32093c-0.636,1.24878-1.03913,2.52785-1.28606,3.90185
		c-0.2431,1.35343-0.32387,2.73372-0.36096,4.10217c-0.0167,0.62833-0.024,1.25608-0.02786,1.88483
		c-0.00462,0.74582-0.00436,1.49232-0.00428,2.23806l-0.00017,25.75909c0,5.25713,1.02209,7.97893,4.91877,11.87616
		l144.14282,144.15587c3.94606,3.94608,6.63023,4.91916,11.87526,4.91925h25.74927c0.74609,0,1.49249-0.00009,2.23877-0.0047
		c0.62848-0.00369,1.25696-0.01093,1.88538-0.02805c1.36942-0.03699,2.75079-0.11755,4.10486-0.36102
		c1.37387-0.24698,2.6525-0.64957,3.90057-1.2847c1.22693-0.62463,2.34946-1.44012,3.32297-2.41321
		c0.97327-0.97318,1.78891-2.09506,2.41342-3.32086c0.63599-1.24887,1.03912-2.52792,1.28601-3.90192
		c0.2431-1.35336,0.32391-2.73373,0.36096-4.10217c0.01675-0.62827,0.02405-1.2561,0.02789-1.88486
		c0.00461-0.74582,0.00427-1.49222,0.00427-2.23807l0.00018-25.75899C283.13196,232.56918,282.10986,229.84747,278.21317,225.95015z
		"/>
</g>
</svg>
